<mxfile host="65bd71144e">
    <diagram id="3ldgGl_wcnoHqN6fAiJ0" name="Page-1">
        <mxGraphModel dx="793" dy="622" grid="1" gridSize="10" guides="1" tooltips="1" connect="1" arrows="1" fold="1" page="1" pageScale="1" pageWidth="827" pageHeight="1169" background="#ffffff" math="0" shadow="0">
            <root>
                <mxCell id="0"/>
                <mxCell id="1" parent="0"/>
                <mxCell id="8" value="" style="edgeStyle=none;html=1;strokeColor=#000000;" edge="1" parent="1" source="2" target="3">
                    <mxGeometry relative="1" as="geometry"/>
                </mxCell>
                <mxCell id="2" value="INICIO" style="ellipse;whiteSpace=wrap;html=1;fillColor=#6a00ff;fontColor=#ffffff;strokeColor=#3700CC;" vertex="1" parent="1">
                    <mxGeometry x="260" width="120" height="80" as="geometry"/>
                </mxCell>
                <mxCell id="11" style="edgeStyle=none;html=1;exitX=0.5;exitY=1;exitDx=0;exitDy=0;entryX=0.5;entryY=0;entryDx=0;entryDy=0;strokeColor=#000000;" edge="1" parent="1" source="3" target="4">
                    <mxGeometry relative="1" as="geometry"/>
                </mxCell>
                <mxCell id="3" value="A, B, C" style="shape=parallelogram;perimeter=parallelogramPerimeter;whiteSpace=wrap;html=1;fixedSize=1;fillColor=#60a917;fontColor=#ffffff;strokeColor=#2D7600;" vertex="1" parent="1">
                    <mxGeometry x="260" y="110" width="120" height="60" as="geometry"/>
                </mxCell>
                <mxCell id="12" value="" style="edgeStyle=none;html=1;strokeColor=#000000;" edge="1" parent="1" source="4" target="5">
                    <mxGeometry relative="1" as="geometry"/>
                </mxCell>
                <mxCell id="4" value="" style="rhombus;whiteSpace=wrap;html=1;fillColor=#1ba1e2;fontColor=#ffffff;strokeColor=#006EAF;" vertex="1" parent="1">
                    <mxGeometry x="220" y="200" width="200" height="200" as="geometry"/>
                </mxCell>
                <mxCell id="13" value="" style="edgeStyle=none;html=1;strokeColor=#000000;" edge="1" parent="1" source="5" target="6">
                    <mxGeometry relative="1" as="geometry"/>
                </mxCell>
                <mxCell id="5" value="X" style="shape=document;whiteSpace=wrap;html=1;boundedLbl=1;fillColor=#a20025;fontColor=#ffffff;strokeColor=#6F0000;" vertex="1" parent="1">
                    <mxGeometry x="260" y="440" width="120" height="80" as="geometry"/>
                </mxCell>
                <mxCell id="6" value="FIN" style="ellipse;whiteSpace=wrap;html=1;fillColor=#6a00ff;fontColor=#ffffff;strokeColor=#3700CC;" vertex="1" parent="1">
                    <mxGeometry x="260" y="550" width="120" height="80" as="geometry"/>
                </mxCell>
                <mxCell id="7" value="" style="shape=image;verticalLabelPosition=bottom;labelBackgroundColor=#ffffff;verticalAlign=top;aspect=fixed;imageAspect=0;image=data:image/png,iVBORw0KGgoAAAANSUhEUgAAAR8AAACACAYAAAAyEG1vAAAAAXNSR0IArs4c6QAAAARnQU1BAACxjwv8YQUAAAAJcEhZcwAADsMAAA7DAcdvqGQAAD3USURBVHhe7X0JgFxFue7fe/d092yZSSZkTwhhh7B52SGgIXBBcInC9b6HIj69T70ubCIqCkRQvL6LgIqioIgguCCCqEBYhMsqsm/ZyTaTmel9X+p9X51TM53JZBLC0gnUl9Sc03Xq1Knlr6/+v6pOHY8CxMLCwuJthtc9WlhYWLytsORjYWHRFFjysbCwaAos+VhYWDQFlnwsLCyaAks+FhYWTYElHwsLi6bAko+FhUVTYBcZWjQVpVJJQqGQVKtV8fv9Uq/XxePxuFcttlfUajVdX9lsVmKxmJBGBgcHZdy4cfqaz+dzQ24elnwsmgKSDkHiqVQqmnwotBRkEpDXa5Xy7RmmvkgyrMtoNOpe2XrYGrZoCkg6hmACgYBEIhF9JAwxWWy/oNZjOg4Sz8DAgPbPZDK689gaWM3HomkgybAHpfDynKJIoaaz2L7BuiLRtLa2Dmmq+XxeWlpa3BBbhiUfi6agUVD7+/ulq6tLnxMkJIvtGyQbOnYa1Fh5bsbtzDjQlmDJx6Lp4ABzW1ubpFIpfR6PxyWXy7lXLbZHcLwnGAxqwiEBGW11xYoVMn36dH2+JVjysWgKCoWCFtr29natAVETMkgkEpqMLLZf0NQi4YzUWolkMqnrdUuw5NMkmEIfnlSmD53x8QyFITYOR+z409FGTae2w56UqvvYKntjiRA7bhk01rTGiGodPaeNvs3N+8jpdGNGj/QfC3a2qwmgCNVc54gT/ir8Mk7q2p9zBs6vUcK5PjsyKKiRlqhUa3XxgHiYo3CkRR+NG0aDL/rLarGoj3S1cllU3SkT8y9XyLnHPP5Cm0qmpc7gOM8XyvjbPDANxmk0eriePGxc/+5FN89OiOZhJMGY8butJR7Caj5NgBEqglXlpY9LOrpH8/ggWr4hcmIfx3AeZcLxB3w8O27fYXpID/JQ0QPMHvzetDcf9nEb3JC44kq1jnvLEgiHhwIWSkVtErSAxBhvwB90LgDFYlVSqbRMmNDZEO/bDzcnGroGGz2YMDhT93T0okRoXViTD3y4EHMHX4xpNZ8mgCLT6LYa23zj9geO+TgAzfq8mniqIJNSqTLEL6NmUTc4NMMqmqffB+KJSBWaT94doI6EQiCeiCRTyaFZsxKuE+Gwf6vGIrYHmLxvWtX4tannDglLPtsdRpcqpz2+AyTOReO4TjaT0Ue/HzogzCfdqWufkaCv4zz+AJRAaIIc+AwGHbUfmmGpWJCBgQ3S3tYmEWhEieSghHC9WKxIuaIkGIKmheN2B5M1Fzxl49zY2/za2HdHhTW7mgAWOA0sQlvI2pRyzSkKlTa7vBuZXRREPSqi3DUwNLt24L6jWCzqVc1G/LhSlqZYGITBc7PaebPAbelkCqQTAfkgrEdB+8lIi7vMvwYS83oDIJwKfnkliPicJ4mUywqEBAJzfzcDJi1jpcGEIXZ8qtkUVvNpIhyBahAxfQpf2PSNgsdz5zeu8aZ3gCSSZAgSzjDxhOCjQDxcM9JYAsMwvhz+am1v01oPUcjnXOJR0te7Xv71+BMkFApoMysC0+yuv9ytzbl0pixBEM/2BqeOnb/G6arGaWNqzdV3Aiz5NAnDAuWKk5EoDia6V42gNbp3CozGw0FnajlBEA5nrOokIj1Gs3GOzS/jtOLnolgoSMSdbVm1Yrl84+tfk0WLLpFyqSTJwUGZPn2anHrqqfLoY09JLB6UQtHonc2DqeXhPA3/0z4sH+2GA/HAlNPxfEeHJZ8mYmOK2TLeCQJnQE2H4zTOSmbljvV4xOv3ii8AZtHk5DhzZhqdOebzzguoYZheFRBNtVySzo52OfOTZ8jc/eZKrVqB9hOU2267DdpOSO666y7JZqvQsLYDsWcGXAzTjsmdm8NGAnJ8Gq/u8LDk0wQ4vR5fzEvizIiSkkouPyxoOHJCx4Deta18W5jgTI+Z7TEou7M+jf7UQN6KYb/GZ5BoCI7zGHA6XI/rwH6ixsPFhgpkYdB4Tuj84w9j4jId/o5EYaa56gMXKHLsJ9bWKvvtv59US0XxwY+YMmWKNr+oZYUifh3PdgGdDod0uLKLziStxtlA/qigHHHMZ5zZQUM+7wRY8mkKKFVKWuMxKeaykk8ltG8gEkFj8kohW0Tj1TPJOqQRNjYwtrZMJu14jAE2Zjq+wkDSYWPnuzhvF/hsA7PwzDyf73BxOwa+RhGNxfQCw2wqqTUf5riA/HmYdveVi3Q6I6l0Ts+CkXwYDYnZ5TQUiQfaEkgF+awVoQ0hnB8aj1N6IsuWLdOvAex/4IG6TL18zHYEU8eOVDh/faEwDjj3IV/ZvLTEIlIGH3OibiDtLJzc0WHJp0mo1SogBJgA0RZpaWuTGhsaiOfRB/8uEyb0SDjYIrfc8mdZvQaNEuGL5bper0Khi8dbdRxjwayjYSNnozfaDUmIeKs0HgM+p1H7SafTQ8/je1tc2VyvKym5K5U1WfkojkoiIGVqRKFIWO6/7z5oLR3SPX6C3Pfgo7K+NyV5aD5ekgicJiH3OT5oPj5NOgSeBZahOXbnHXfI2eecI/PnH63Lr68/29zGy4e7CXBOh/8NXaTmR00Vpz6Yp/l0Ufyc1IMwtLU6q8B3dNip9qaABFCTbDYlsZaILHnxJXnvMe+Vdb0JtL+AcDy0s3uSPP38izKu25kVIgFRf6jX2Fhhsvjpv/m+g42fmhJNHkMCJCID+vO6o20gygYxMH5vFDSzGBfJz8TJrTY50xWNxqSOfND8pInkD0LTyWY0WWRwPOroebJ0xRpdUsFwi4SirbL4wYdkt91m6rJgzqlb1apKsjBfO9qilGb60FNrDL1r1olCeb7/lA/Ln/58t7TE43qg2o+beW/Tel4mkxlDRupe5B8/anAsCxifOm1SZD4QAPVcSqRk4qydhaNjS3vXo1zzMr2r1Qm3A6Np5W+hJBZDg0HvPGPGDFm+cqUUq2VZsGCBvnrwwYdIN4gnk4W9D0uijPZEmfWjUb2e/oJhSTp0NHfOPvts2XvvvTU5jYznzeyHnKnzsH4up9IJxs+NwzjQ3N7RAZOwLAVofHq6HAQZQnnEOjtk4tSp8tILL0CrKclJJ/2rNsvm7ref7A7iYQrpcKs++vweZ9WytqXgA42BZFaC6TZh0iT5zGc+LT/84dXS2RkXLgfK5epCy2x7gsmTM+bj/qJ9SG0wmZTTPvJRZ7wMmnES+RoP4mGoHR2WfJoGJeUSTCOQAM0FCQSkjob42GOPScAXkN13312H4kLgCBQWDvcYIW0cT9kcnPEhZ7dA0/i565wedAUhvNXk02hymeczLXx2X1+fJBMJnAcd7YzmZL0mJZhm1OqouXhAJpx2f/LJJ/V97/mXg3UcTGEWxUbrqlB00qu1KphwdYRjg/WD3BTiOeeLX5CFCxfKfiCugl7hjDKIe0UvJ9rOsJHJZRwI/IF7F8vdD/xNqjDRJ0+eIoOJpL76ToAln6bAEa4gBxXZyDhQms3KqlUr9asAHAs57bTTdCg9psFb0L7Yt+vTrXihlFtcEtQ0zGphEo4ZCxqNfIg3i4BIMtwegz22IUJqQmvXrnU0L5ADSSgEJiD5epDvEMwiMBXUGfT6cBwk3rBhg9Z8Fn7kI7o8EumaRCM6uo3SWkK+vHgmMYBnfO/yy2XfffeRU//tNJ2OSDggt99+p/z5rge3M83H0XaYE+M0QN7VgUHIwan4wdXYXpTHgEyeMnU4zA4OSz5NAQhHkUr8UoFt70Wj9EU88vQjD8iSNetkr4MOkWnTJkkxh2tohwzJRbnVcgGquR9kxFcFxq467gZImNkuglqPIYI6Gi6TMCz0HHHgk+jeHPBZJByO+TAdNMV22mkn6e3t1U+bML5Lj3XQnChlQToKJBlChus53FyS23//GxRRUObsta9MmTqFSqJ0t/r0GyZMpT/gbMOhnSZkj+RTGbn6R9fIty7+vpz+8f8AUbVojc/vCYCQviPvOegArUk2HW4xc0cD1qYPHh789ep6hQsE5aP/fqosOG6efPuCb8DPJ+mEs00I88shI+P42+miWIY4Unt0C8aE5dXG8MOuMQTvxW/9ug9lpjIcjn80qMVy4oNLAzaNc/hsNLcxxpbgdzHM2pTG3tWYD9QatgYmPGEIQA8AI+ocTIaaBKXmjdJ+QOB+uf2GH6JGInLIiR+SaMwjrdGaFoECHqdygxL2g7Twu4QkMVXFAqeinYqtVhhy4/M6zBeaNgG/T79wST8OjdQ4IIua9/icxltk2uBfqXJfHY/wfU0nptHgXGksi8ZdCEfb/pR5NqYeodtdnfdXZaCYEehGuI5yqJB4UBZ+xFdPyAN33yalck2OW/hvEouHxY+6CKHsInBacBGcqUnjmXpq2uOXb15yqVxy6fdMU4IC4WQmDMY5YcF8aUM8vNdt+5uFqX/CEDhlYXMa42igxkXwfoJxajngw+EyyQQ8YXZD0w0gM+VSBV0LtVS/XPPzn8nf0Bldc813JTOwGsGRvzrKgEsKEKLEOsAxx/kHHFF4Uk73IQziZ90gLl4oVUooZV4V6U9T5jiWXXGOuMBxpmSmH79wn6pINQeNGUepcw1aQXL5qqSRDe6FVIQg1itcFpLB/XXJ1Zw0MP4yCM8hRqaG9cxyNw5+Qw6XXFjy2QwoYGxgNFNMQzPmSyOpbA68n8JGwaMza1yofXALiWgkrNeP+YJoQeEW2XD/3bJ+1RLUSEDef+rHpFBigy5pOY2glgItYckOJBwhgJzwGGYcZcQPYqFQ8jyfyzoCWuVUPkUM+gwIheaNs5gPz4MfVxGnsxktC0xbBYJEc46/KSND0B7OaSPM2h2WBbUb09Bo5jHvNPvMBlOMn6Rkyk83fHdMyI97dTOnJ6NkxuCz4vEH5PHHHhJf23iZ994TtYAHfRBkkDaVNwavoeEyNJ/p8wVgTlXlvK9cgLIrSxXqUQ0EV0Ih08SjSfvV88+TcMCDtG5KkCNh8se8kDjNjB3Jx8zcjQXm14SjHNDxN+PVvxFvvKOdzCS59b1a54mF+Ga+V5575gW56LLL5CfX/1Q8E9qlVskjv36ISRfqzFnjRT2phIIj5yYSWamDbIKxVhHUqVOWXqmgUwsEQpLKOuTX2uqkJ4BrGciX1y96hrU9Ph7PRd0gPn8khrjyUgH51yWNOvRLFbdzIpErw71uHbLOuA1KGf6sA6+RHdKZK3cbuwa4Py35bAYc1GVjYQPikQJjYHrxsRwFzcz20BEchKWWkMukxIseylMrSoGtyhOU515eKs8uK8sRJ54EIYlBQiIyY9o0aUcFR0EerfEOKUIroqlEsyGTdsZuAmgUhth0etEQ60irzx2UNutoCD6baTGk2kphpT/Omb9gEAKEoG7wMUGTinEwPp5ziwz+1iYV8k6zj6Q7kqh5rVZHpnXDhFkmEd1W6vonHlyGSKKHf+GVV2QtOvIpPbPkkP2mSzaXlpm7TJa2toCEQdg+D79y6iT0+Rde0UempaOzC2SLvOMSSaZMpsYTurrG6cZCxDnLuBVgmXB9EsEj63XIbB1R3yMdCZGOMPfwaExfL1VQAr/5dj9RAZkWQRgXXnihHHfccbLwIx/V/jQbDVjHrl6hLdRSpYCy9oMUOF4GwYjGRUGbFB/IDh1NJl2X2TPmSITPQf732WMX0pYEQlm55oYr5eYb/yp5KDMqT3kJQ3FC2tCp+f1VSRbXyZVX/FR6uqZAe45ICJq339Mpt9x6J8iJpYp0oIyqyC/PK9C4SYoco9saWPLZDNiTG8EjTE/IBkzhcgRo884M7DI8B10pyGyMJLMYF9F5YBKhsfvQSEpoIC+t7oeSK3LQAQfIvX+7W1ojUa09UCyDbEi5suy8217y2jpHDW5tcwQ2gzSaymYvfe8990BwguiJfJoQOjo6kB4IJ37H421y8cWL5KWXXpLOtg4JgcX8EMhWNBIu/PN5+PG+uDzzzLM6vi2BzzOzWhw8ZiOaMGGCzivNC5IBG8v69et1Q2SZkpCRYLA7CRkkouOpQrMBSXpBFLRJ60H5x3NL9FKX/3XqJ+TK798mk3p6JJNLorevSXuM9yrpmTBJVr22QfbYfRfp73fqKpvOSSHHkiQhtoLjvLqBENxeI5sv4BHDHclYYJ2bjewNyZI8mY+R9T3SEax31jnjMfJDMA6iSBOV4UHUFWiq1EiuvPJKWbd+nVz9g6slRy0G97OMEUofWeaMnbGls0VpCXglCN4o5/lCLq5UQDqo9w0b+mTObntI97gJcu9f/yqqlpNKqU/+90c+KO87dp6cdsbp8vkzPyddnRMFYsj+D/cWcOSaI498/9rrZdr0g+Sr514g+eRr0KRzSEpSrr/hp/Kx08+UJ598ilkYyivBtBFm0edGYJYbHYEbLMYAem6FhuT+UgoNyz3bNjC+ermgysk1Cn8UVFS4ujpg5ykKzVJ1zNhX7XH0yao3lVTV4gZVTy9Ri77yKdUeAwV5Iuor3/2Fwl2qomOrqXQqoY909VpF3XP3X6kcaRcK+lUkHBz6bZzfDxUDSo43HNBHtAblD7dAcvwqEIqpJ558RtURI93wicGwB0hYH9EYFRqUzlt/f78C4Wp/YmBgwD1TCoSs0AhVqYTyxK2lUkVVkW6UMP7hnlpGqeKgUpn1avakqOpsa1N7732Kmvue09TqdEqV1IAqZ5eocz73v1QwHFMSHKe+9q3v67KoIT5dNThWSoi1Um1Mqj44peQ413uzgNmk88Ejwby9HmxOTugPQnKSRrmCLKhKURXLJfXy8hVqtzm7qfsWL0Z51FWljLIovaa+8tGT1TjvLNUS20/9z4o1agPuZa2nSjXkBfej7HIJlB+yTFl69tl/qs6ucWq/Aw5WicGqKmSYdkrNemRsrZo9fSeUHeq7a6bawMgo3tWMqhdXqkzlNXXuonOVp71bff6cb6sCH1Si48mA+sJZn9ErIb95+fdUb7agiu5lPoF1WcffbNZIqHFM2KalbslnM4DWo4WEDcuAjceAQjSWI9gQKbwkLyO8PFaLiLOWQkPr0w3tnjv+iIYPYYhMUIt+cJ3Koo5YifUSJKMOgcksVzN7WlWsrUsdcvJn1Dpc70uxyp2mRNLR53WnkmtVShMadRlCXUDjcf2zmZT62gXnqz333F0NZhIQCz4FeWUjAxEwtiriLiM63Tjghk8MHA/TKNl/QavRR2gH2s+gCrvIgOfMO8xZlCvyhmjyeYhrPYfYMkgLxRhxVvrUC/ffofx6lKFdXXXFHTo9fFpRN7nlaGjPqZ3RSEU61AnvP10l0sgd4mOciQEQmC4KeiA4XAH5g2mpCmjgRaSB+eSl1wvmOZVCvQGj1Xmjg9Y6FI75Jgk3dmL6+UxwBg0V5FOpVdX8E09SX/3KV/X1NQO9+As5KaxUl3zyYyoiE1UkOlc9syGpyWddsaIbfSLZq2pl5hlxIWOPPv6UmjBlhtp134NUugA/PghxqzLiq6xGJlaoKePblG/SXurQhV9QVdxT3IAOoorOsLZUnXvRf4KYAupLi36uknwAk8y6rq1RD99zg9NZRdrUtTf/TiUr9SHyKaITLUMOKVG1uqEj4xz5G1nqwzqTxUbgmIUeiG0Ys6AKTWyt2k3zzIwZ0fwiOJbkC9JsgA5C3TlYkvv/8ie0o5kyYZ9j5F/nv0+iMEJK6X699oX6cC5flKMO3k+KqX5JwKzgrfFWZ5ynAvNGz6DwHGnlXsZeqPhG9Q1pMwc3AEwL88D00EQyg5fc85hmQbnMsaqh4GOC5hPNB8jQkIkJgtF+NFeZJmNecGU142feGSYQ9OkxCx69Cqo+TS5dGCg3b15uvOmXEmvbRXaacqB88uPHiwdWUrGgpMQsqay0tIdlxozp0t7dg7rI64WYzC5fh2pvp0kLM6RcgbnFp3BgPqLTGwywzJBePfM3NphmA5qNBMvMjL+MVueNzmwTy7Jgvjs7O7U/y4oOvEMBoT3HF/Hkxl/dqMfLLrjgAj1O193Zre/nNZrOnEVi2dEMpNEYC/klBfu7vXW8ZJOQLQ/H21bKx8/8tPSuScgvfn2bFCt1yAQH12Gn8634OuyzTEI6O1qk1t8rU2ZO12UVao/iWJZbb/ytXHbhdTJtnxPlc18+XbxaxJDG2gAKd4PsvfcuEoj0yB77HCvHLzhZz76yhpmVUqGozVv+5uDz5qB7KedUm48Wm8Edd9whc+bM0Y2Ijsv4J06cqInJ+I3leO/ixYt1XGZQWC/+42wAHacR6kW5+de/Esl75eyL/kt2mTlR+4VjLVIvlKSOFhftniDJxICu2JmzZkrG5UNuosUBZxJMFcTDcw4485wDzhR2Aj2sFmiODVGACR7jsbg+5wurHPshkRBI+hbB/BjiQe+u/Zhngg2U1/l8XmODIenxOu/hLB9nwJ3k8d4qfpPY8fxCRm6/805Jpipy2eU/0u+acuw8HvFIxN/iJq6kZ++SGzZIV5fTSHNZvpwqMtDPqWKSrtNxsIzwUJ2Oao1fswDxht1VimPADAJTBvgFTqad+eHYj6nfrXG77rqr3HPPPTouEjD9GDePbgHIimXL5Etf/pIe72G56Q4D0EsmUJ98+5/gs6F9aTlgTfm5CAzl2NoxDoHz8oMrvycvPPOcnPXNS2Xazj0SjfsgEwiZBXlEQYZ1jwysWyeDiX4wckBO/dhpOi5NgsWSXPj1RaiOVvnK+YskAnHVXZoPlcUl4Si3aNdE3LtOHvj7rdIWR5dRqjnpQCQxdGwkd5Yxy3s0jPS15NMUoBrY0aPWCi+/BA0EPVe8Q/aeO0EP/kkRv9GTeMMtkE8KmJLlr63RzfTYeUdJa0B3WLpHNdCNGiRCjccPzYagBqT90PCMQBO8j9pPqexocgahkE/LjcslY4LkRUIxjZSgH7Ur3bBcOBpVWTdcPdgMwBIx29QgIywIJR6uTwEJrUU+1/SmJRjvlvccPFOvS2JArnvjwsS6YriaPP300ziKHH/88brttLU5zzTPIEhQ1HqQIEfz8g2X15Zg8sBjY34az98ITDQVEMt5550nZ335LL3y20u2dWE0SqadoCZNP4Zg/xOLIW+sK1WVF556Qi779g/EH2+VL579fzQRO40dfzmLSJYaTMjPfn699PZVZOb++8m0qd0O+UBTufnam2X58iRYt1UOO3wOfXGNWhOeptBJpfCsepwcpF87IyKQl5EEost4lDJy0uIcjaPQWowB9DrumVLJJAfSYKa79vyW0NfX556pobECjTos5Tzs78oqde91i9SE1ha118KvqycKuEQTObMeJnIe1/GcelLddtOPFWVp/KSp6rnemuIQbhHmc7nEG4w9vbHLZdOb+iPsF7/weXXQQQeoTDGrErm0tsYLlYq2zHOF4fEQ44ZPDDb2AOHosRA0Cj3mQ5GCyaH9Od5RLHJUwAGvsRz4DPrqEaFcr1LZZTjZoCrlNer6q7+hJo1rV4e997MqUcaTOMxWYNqZAw5kv6ye+MeNKhiNgbG61WvryqqCa3kWhZvNoSQa5x7MZRNkLDTWF8wufTQD7K8HjfLDMuEgNl02l1dVlM2zDyxW40N+5EVUa1e3gtGm0HQVbBoFHlJcgdMDF5YelN9sJRMmK2nxq7nHHqfSBZRgBYWU61dnnXGKmtITU5//6sVqLbyXoTwoAaXCIB6MMi6uU2r1c+rQWR0qEhB15jev4vCzHvNRqbXq3487ULUiDfMWfEr1w2t5raySHM3hWFIJgUpFVU4M6uHtXggLjxwOahzRcUqVv+jb6Kq4UsM/Z4zRlP9I4rJwQfOIPTY1BAOqvQTtefZCYzmCvT3Heqj+UyMgqB2ochF2C0Qsn5Mrrv+t9KbLctyhc2Uqh2dYI2GOFwRlIJGC2FVk+dJlUoUBPmvfQ2TaeK8wJk7R08xiL8O9ijnWw0/QaDMDMF9xyGWzWvshUN86D9SEIqGI1oAgEjBF/LoHDHLOFuCitS2B+WJ87JXpqHFQExo3bpwuN2pEnGrm88xYGZ9Hk2xD/6B+S7+iNSz0qBFOZ+fQa5bkjrsekbUDZZl//JGIF9lD8VcRuF6uoJflauqyXHf9rVJGPhecdIJMmODUT4ZjGswEXKW8FarbFtC4tobLBwhqHdpsBkar80bHcUGC8bDOuZUI/VkudPzqhg/1NzAwMGSSpxGGYztaVqAauiIjrBXoX/iLfCWhnaDZLl+xDlXPAkJ6ihvkuaeelQ3rs7LH7nOE61ajkKUMxSzUgcRCbqs5ufx7l8jTSxNSqERlj1mHCJdb+bzQsn0D8uKrTwqXTR1+2F5SQXW1ebnmOiilQkWq3FpBQhJo6UCYikSp3Og0OWg8Hw261xnhNCBAFmOAMxVoTO4vsDZ68zcCxqfKnOlapvpfvk9NmTRetXRNVbfe/YxKs1uo1qHsDLg9c031L3tCtYVEte28r3pyXUXleQGuUuaMwugajtaI3POhmTC4TDqpzj3nLLXPPnvp2a58taSKuF5CnpLZvNowmNYh3Uc4aRg6MXA80JB0uRgtkL8JipRxhCkvzh7Sj5oQfaj5JHP4qztHaEPpx9Qrz92mJo7fCeG61W//9qSe4Vq/FmWlu8sytKB+9dqqJ9T4iWE1edYu6h/Pr0L6nShSKDwmoQyPGlUhJ5mOcw9OKTjO9d4sjDZnZvV0vb0ObE5O6A8yVgOD0Ih0ggsqv261To9+Ak5gOuupdlVH3aaXqIs+cZpqlamqtf0g9fjqXkV9uo+3MnxtnXri9qtUF8oW3Y1a3jeoXs3V1BJEpvV0JqOYUT/+1qfVyYfP5jpmFY7vrFbg8f06grR67dXb1YwuUeA6df7539Myth4itGKDO9PL2dMqtONCUf3ouhvUBmiiZj6rUZNx/m6q+egZMPzjmbmHIa3msxmw5zIzFY3aD3tz9mBbgrHXqSHwHmobHCzU4zSuW72+T15bNyCTp82SBUfsJXF2H9BEPLFWyeZKUoRqsOi7/0+gGMlVP7tBxvf40RcxTAm3O4Y308ZZBmo3KfSKEGitEZnZLj6X2hBdLB6XSy+9VP75z3/qwWZu3cExDO51HItGpLMjrsd7cjlHUxoLZiyEWiA1HZ6zd+fMTOO4CMuQaejp6dGzOdSE0u42sNxGS+8LCqPSG4tKMZuRdf1p2eeQI2X//ffQ4wndE6mBlKU40Cce5ZMfXvUL6estytlnn4NefooU+aIbEItTC6BGUhWvXsmsuU5f2xZQ+6A2ZzRW5oFo1GrGArVe1ju1Pmq+BvSnpjOkWeFaxNVSzd7SerYS/7QMobxYZmX8Syf7tWaZRt0yi3rxNvLY2RqTLmg63fGQPPbow9LRgvqEiDG6YqEqv7/xRnl1+SqZtce+EumcJAcedoQeyG+BWJdLNRnXNU2mzXRm5/58y0NS6hdpR3wTu4KSLmyAZpQT5Vsvp378FGmNTBN/hcbhsMZj3ObQWBON55Z8NgM2qkbV2wgfhZECRCEcy5mBWCPENE0oRJqMoMbWkym5/+8Pgz3CcuQRh0uItccNZ+o1KYNE4i0hueXW38k1N9wqN/7hjzIXjVFTYA0SVy1KpeC8n0SiobCShDirxBktml/oWPR1Dj7rqWY3PWAGfXBeAHTI1PmwnoN+mETRqGMGjIVEYtAhUsA8i9PJNEv4m2VEEuIMIcuDv3mdz2vlit46yJANO+ARqC14cFL+dudfEZlHDj92nnR3hCSTTchgdi2EvyRhkNrtv/mDfPeyq+THP7lezvzUGfqZLRHuEEBS0D8lxGka/bEr1w2J+usHzaUkzRzAdCDM29aa3ax31jnvM/JDMA5tirLcaFu6daOJijIAcO03t5rFg7XMBPAv3NKqiT6Ock/DpNI7xmZKEo/EJIvfKZxftugSlJnz/Byi2mvv3eQn114j3/jWZXLX3f8DAivIAYceCrO1Kt/+1uUgwlaJtE+W/Q74Fz2ptWblK/KefU+QvtUJkIMH5dshjz/7rHROniLzT3ivfPCUwyTG4QEWr37K2DClP2pNoCAsRoExt6h2N5pdBATRPds8IIBabWfYTcPjd71XrXz5YRUfN051Tpyp+nu52Kyukktfhj6dV5PHj1fi8atHnn9Vq9nLoacO8lYu4KrCFNELuWAuJQZw7ii/NLFu+8Pv9Krm0VY2e9HOueqZ1Q7JUsFYRMU62vQKZ/FwFMmvOrsmqvsffESrxVqVHjox2NgDDUMf0bh0frmwEiSoQL76OSxHhuE5GrMOm4D5l0cZlGA4JPv6YeMg7+Ul6tVHfq965uylpGOWWtabxVWYkMj90hUPqV3HtasOpO+hxY9p1Z2574epyJopwFTl4kEnVVDwYU46yr1TLkwvr/HMuI2yNApYf8Y1YqQsbA5cnEpHUIaYd5YRj3Q6Vtfs4iLDar2msuWKKuYdWUmVaO7h/uwy9b3PflJ1emaijuaoh5evVlx+yEHhLLNXgmmWX64+tE9MzYpx0HqckkC3kuAkJaEu9Y0Lz8VzBtX6l59X0ybNUuKbqK64+T71hfMuhnkO06yfC17LauUrixUoUE1G3YUkrNpbJqDO4nCQj1BU/f1prrpGPpBkrll01zSOKEueMVGNJhcnMar6L01Jlh6vMGTTyIcPH8u9Wdg43uF/W4JpKI3CZwSPQrQ1aBRU2vmEFrwqx2Rokaf1qtsrrvqJCvjCCh2Zmj1+nLbd/3Dzr1UJNU3x5XyJu94VD4dw1rKqpJewD+fMGQOqqwcfuF/5vB5lCIfn4VBwyI/nJAIfSUi/WkHnUYEwyQIE5AmoJ558eijmTeFcYRnQsXxGlocmNzhoffpI8FzPdPE+3F+CCKIZIirEx/LoexHHftVfrKj/vvE2pCPqpC8oqn2cqBt+cIUzUATJLeK23kRGC/KGZGqIYmpD0130GfKFc2qcbthnbDSO8ZhOhGln/Y3M7+ZgxsNM58N7jRzw+WXEq8q4BldDOTDF5aIjMwUQgp5TqvSpb3zqdMjEBOXxTlUrMgU929mLJOiQSXRJRUhH+VW1S7dbn74OtfuRH1Cv9rNj4OrkQZXvH1A940FgrdOVhHvUI/94HkSHGEyB1Bhrn5raHVRRlLsfBMQV5h9Y+B96DAj0CLLL6qCcYDO3mXJ1wDP6mvInyTrjPfzLXyxVXmHIbd5Avlyu6tmRTW/mGo6KViFj0ZhWzVDoFEFn/QmaAJ4M6fdIuQqS5goloFSqQO1zxlaKMGbRc+tzAyfUljGcHuds4/Q5xgbj4uyBM4PQDFAtphpOSXFMF50SnVhe4wkkAGYLQ/GX48OZD1znHil6WmzbrWb9qFHwZpUITS6aHNq8ABrFjGYet/0w9eBsgAUbAXmqeYK6BDii5aTF2VZE6pQN5JfB6egHOGEcOOej5Ww41Gj3NRWsSwJ5Z9pMupxzlgvbDksDbQ0Xuac872A4+nq1iUdTjeXnQ5iIlhn6OvLi/uJiDdxVcR/g/AKGCoRxuHfp5zmypXcb0GBAchuMMZwyLcTQ5SGYCIcx7DMcmmfb/vUK3oUYiiANvkofBHGY5euNj+P4g7OrHgJz/xVc8nh9UkPeON3qxZGOXyHwu8u1TRLNkWg8HwvDTzajGubogL/4FNqzzSOfdz7M1DtJiGNRfOudnRDHfugaB/Et3p3YZvKpVrjGA82XROn6UePhLnkc0yQhxaH5FIvcUsCZMapVnH1muLuc8nv1QKFZ0GlogK/j8Jz+xu/1UMRIomk8EjxjfJZ83lpwlmvq1Kl6oJYkRDGDuaKPZqDa4t2NN6T5UOPj6n/3p/vXcWzWsMFxZE/nKNHc2IlP44yEMScILrWn+ukHIXE5vaEEHl8vPZg4Ced8pObjxOmQj8VbCU4Vc7aPIsZzzgBymprakNloy+LdizdEPpw9LFeo2XDtgh+aDDeRctY1cB1JmeZYgNPLfPlQwS+m7+HmlwVoRPwipXlPxICEQM0owC+7ub83hknu6NQxkmgajwTPHfLZXAwWbyao9XBdC9c4EZymtrAgXKPn9aNapdnFJQrObnV1qEFe9GjhUEiTDJs5x3sI9n4cfGRr5w6X3Hs3Fgs7A9EuuG1EoeAMThri2RSNNGKxPcMMNLPeqemwQzLrY7huxcJim8lnaA9agLa8M2oPcoCplUoMyPELjpNdZs+W+fPfp7+9FAgGJJnipz9E1q5bL/G2Tpk2bZpcsuhSPc4TawlLC4iMsZoNvp0n8A7jCHO02J6hOxvALNLjYkOugOZgs3lL2+LdjW0mH2ov1H6cWSqf3gpg5fJl8vnP/V8Z19kjf7nrHghbWh5++GF59LHH9eByKNIizz2/RGbNmKXHAAb6emXVqlVDrwJkM0Y1jzYQjzkaRzSeW2yvoLajP2UMsL65wpmajyEmi3c3tpl8AgGvnhrXXwTQw0ZKps2YLldcdaVUVUGefeZxaD7TJZctyLnnnqvVmBdffkWOO+FEGchk5ZH/eUTf1z1unISCfkkkUhKPO4OQ+osLLrkU8g4hPfTAA+LjJugw4Xj0g+w41mTeqh52frgATEActeMXHdokFI7JQw89puMqlamlOaDWZjZrIsruG+AWbxyN0+k0vQlqPhY7PjiL2Xg0QyhsT+xotgbbLgmOajIMzRX44x5332tPkM45/KE/83r/Aw/LbX/8kzz51NMSjvhl37n7yPreXll0yUU6qs4O5ysBA/39EuZLJgA/eheB0PJb3nwxsr01OjQuNAyHpEZDa3sH/nqkWqlJOBSRXC4v2VxFfzWCfMlCImHxZUjCzMSwQDkOb5111o3uuI6Lmq0Zz+PyCfqzPZn3GreEbZ7t4k2af/Td1CQ4eW4m0JXeb2X1mnXy3vknyLIVr8npn/yMHH3MfFn4kZOgXYjesS/kLvfg51+YGc6K8MN3ep8axFFDpsz3pzivzy90Mhxyqh/jJNywoHN0JvlJJHyL231hD8/jbFsk4tEfB40gCrIu3wbnwCh7ZQ6Cmt6Z2o/ZY8XCwmJTsOOm+Ww0WXbYbJuc1aTGuzXt5w3pwE7jNzC/HPIJgv1mzp4ts+GIl156WeYft0BvWMQ9kALgD2pE3Aai8e1xEg+/ullGZjh7pr9t5MYZjkY1MaQGBxGJR7Mu/rvHxt/cAD4CwtFR6ql7Eg81Q14j8vmiZmkWGlVFEg/NL/0GsV19a2ExJqjdcCKJ4IJSrRQAW0s8GtR8tgUbvVDGt6q5NWg9D5eFyyhVTeNYUL+64Xowh1eNmzhdrerPK75qx9cqy8Nvo41AXRXzjINxVlUpx61EK0rVSiqb4Kdkyvp3vVZWtVrFdc7LfrVaXW8LaVyhNPyaWxpR8sgX2/oTBZXNFTd6aRQFqY/c9pJvZbNorLPOus07KBb6CMLRR4Jv8G8t3pDZRWhFgi+/DZldzmBuIQU2bInLdTfcJJ844zMIGJBHnnlBdpo8TbravVLKFqU95tiNHKxy7ETYkzCv+G1xajw+HAO0LaGd3H/fYllw/El6USKf7Rh4rhqjj47jq9A88rMpvkAIpltVQi1RmHNVueeee+WwI/bTIZ1Qosd5yNqNS/4bTTALC4vRQdOL7ZZHth9qPbQkaIFszYzmmzTm00g+dIRX1r22Vj7/pXPkkSeeltW9A3LlD38qp5/+YSRWpANck89kdIIdlQ0RMSk6Uv5kxDpyPd7z9wfulxNOOEGTFV9I1auKGNYN4qCRVrwSjkT1QHUw0qKXId1++5/k4EMPlih4BUqVfqOeJhftVhYYwfiZJvpbWFiMjsY2Y0Dzq3EIZUt44+RDGtALDBsd/pYqcsoHF8qFFy2SW373R/n2ou/I/JNOkd/89kb9gXsfgpmFzEwCZ7b0S6ccOeeAkHNBUomEtOnZKCUlaCQhaiT6wfxjMj98bjJD7uA6pKDeIpDaDD/g52xbUCoqiYThj/hZgFx7Qu3LDjJvPUw5mxrYOjSK2sg7h6+ZM+foGa5detANeVg0C6aTpqZDLYdtiGOoBCdxtkbz2cYBZxo8NUml+3HOozMAzCltmleq7pOvfXORzNltb5k7d3/Zc/c9cYuS1cuWCnWcasF59YJ7CZMtSQClckVPhfsD/BgdnwHp8nilrXOcPnKUOhSN66O7k4kTZoQkml80z8IgHvM7CuLhkXeReLS/y9xkcUs8Ww/DAaO5TTFaKJjX7pkGK1xXOjsufoiOOxjzX13/0t3Z8GXHDd1s0QyQeAhaLWxHhniIrV1Eus3kk8tnpK017hzb2uWUD3xAOrvHy2swtX50zbXy7PMvyXcu/64OveucOTKus1NWgnz+CRMsisZ/9lln6QRTTSOLcozFvOlcrVK6DG1sjds8RgtNZ/HmYOs4gKHckJpkGn6PAl4hzzS6IWz5dosdBNtodjld0Ib+XunuGi9Lly2TI444Utau7dOE5IGm8vzzL+pPCxfyXEcTkj33nCvPv/ACrrdDU0rI3/52lxx77DwdG9/54dJ7gusE7HYL2zdGtv1GMt+U2EeEprghkOPjaKAjI6vjD7sfh3S4KYu7814jE7Gj3fRhFjsQtlHzcRBzv/XNTaP42dpIJDj0AuFOO02EHcgPoDkq2BlnnKG/kZ1KJ6V/Q78mHq7ZoX1oiIc8yNHzxrfdLd6JoNnuUgzJiOTD2QN+yQlu2Fh22EVf5snG3hY7OLZR8+EtTt+USqdAGPxIPEnGo2WpXOaOhvw6ZliPA4VCfj0AbMxChqmruv78SldXl/bj2A+3XOD4i9V+tm+w9huFppELNuWFEaFZ+VqFofzwNwkHgqH3DQYQAXmoCsdQvJNx8qpWdvTkBk/oS2exo+INkU8un5Uovy3kCkGNI97csEf/dvxKxaomn0pF6a0yOjq4pwtULlfWCCbBvNIwcvrOYvsDa79RaBprbNPaGxFakw+Jx9VuDfHU3RlOV3Sq4CSG4p30ooruAx15DWkNTTpY7KjY5torFIsgnphUodLk9JvnHsnn+DarRzKZrEsoFU1Q1HoCAY8mnkQiA+1GNBHRvOJUHcERchIPtZ5t4kOLHQysY1e3aaxunjf8Nj/puAPmiHkyix0Yb0DzUVIsFSQM04ooFIra/CL5kFQaVwzzTfSAPwg/rqlxtB7uB8QtMQiO+5gZL/OimsX2i5HNf9s0H36qBedG69FfEdchdJfIr5uYz8TQm1JBrccHjYljQh49BG1lZUfGG6o9blPhiJtHDxQbjPw6Abda9UPzYVBjbhniIaj1mPEei3cY3L6tkM/rXQqIKkzser2mvy/ft2aNTGhvlxbIR097l0SCUYm3dMnaNc4OiJl8WUtYKpdyacwjhXJRn3NhG9E4QWG2bx0JmvV0FtsPtrG1O4SzqbOwcMDtU6lUG2LgvkxmIRoXknq9AfnWRZfIpCmzJZnNS093j6TzCegzHimWs3LA/vvKEUccK60tzuLPtmiblKplyXBblaCjYdNMZ/yNyjs7Mr4aY16P4Xt61Ko5nkjH3/bVme0Db0DVGI186CwsnD2bSQ5aC3bJgURB7adWrck5531VLr7kv+S6X1wrpVpF/vHUPyRfqckvb/i5Hkru61sjjz70gFx08SUymExoyQr7IxKPtOsxxGrFIR3zQiPPjWZDsjHnNOV5nS8QMww19MbVuBbNwza/22Xx7oVj/gyjscsZ2f2UigU0fj/MbbfBQ9xWrVops3ffDYTzlOwxew48cRc3+a7CjAKZPLj4XjlmwXzxh8NSwP0vL1smEydMRE/phVnm1wtXo+76MWoxJBNjbjUu7ScJUbyp8fT39w8t60ilUvorqhbNxds4yGJEdqToWrwTQVKgiRMCgZB4uGskUSoU5K6//FVuuuV3sssuu+vv9eezOalwxpRDheWcHH7M4fKxj33E2b+7XpdHHn4YpBOUEIipUhSJcptdV4TM0gySDkmI2zusX79+iIzMdUM8hPP5botm420iH0M2lnjeLSARNE5CGDOIg8Sc6dxr77nOTJbXJy2xuASiLaJKeSkW+a23inzpS5+V1jZnvGdwYEBrVPxWQaUI+cH/YtHRajhJYZR3mmB8Zk9PjyYjmlt8Hr8TTzAcx6LsxMb2gbehFgzZWNJ5N8FoHpzlKuPcbLMZiUblQx9eKOMn7KQlosLv9vPMo8QTDki4PSb59KCsXbMKJltZfAHR34CrlBEG/0NBR5MJI6wBt/M0g8grV67UR/7mGBNJaPz48dqPBGg+5WPRfLyNXQCFxjiLdwo2V5ts/DR5HHMI9pTHq02vcrGkTaAQuCNX5Ks3PoRD+FzWvVO0JjRp4mSEFdl59i4yY8bO4B0Ewn8/OMxRdEBaFWpJJedlZmhQL7y4Wt437wTx87nQgg49fK70pXoRoi7X/vwXctml/yXFAkhK32/RbLwN5EPxHM1Z7KgYrTaNMzDb0Hr5HTU/tRSPPueHBQyqFX42WUGryYsvDH+9bIcD00G56Re/E5/yyCfO/LzkwRd+WGCctK9AYksKJlyVXz8FYZUHQGAB6eo5UPbY/Vj5w013SzVflXJ+ibz/lENk3slHy4c+8e/yyTM+I3vu8R4JBxE/yccSUNNhZ7ss3naQY2gkpbJpaYuGJQCTS2Wy4iFhQUOqFsrQdnaVSLxd7ly8WHomw2zCDdSWsoWStEe8ENwkIirJutfWy+77HiPjeg6Txx++Q+KcMONOnsGVMphZI/sc9X5Z/UK/eINT5JWnl8rEroBEQngMB7cb2dLibYcdebNoCrhgsIMDzfyWUt0jJT+YgCPKNY/89le/kdXJQTn3ogtlFognhvDcOC9bIvEExVOHDlSqSe+qPpm9/5HSNnG6PPPkHYgPxMPAZLaKRzri3VJPpTTbHTX/ZBk/PSBUsLgxpkXzYavB4m0HFY6w3y/lEswu9zUbbva/oY/fgfLJf3zuP+Wc878qp572YXHHrbWgqkoBGg9Nrgp+BOWwo0+UgmqRn95wk+jxbEQMZQgMBBeISL3qlYiHM2Ye2WvfAyWL2ypUu6zGs13Ako/F2w5+4MhPdQTaD2e5KoUcyMQj3d0T5fgTjpd/OeYY+dr5F+jRHx80lWypKr5aRTqjsJdKaWg2FTn7yxfIkpUD8vFPf1H23383SWSc3RG8YcTrRby1uqxevlaKWT7HL0ceOU+420u+BE1LQTWyBNR0WPKxaAJAOPmcRFo4+FzT+0DR9Lry+1fIM0uWyLW//rWEobBwtouDzIEIqKrEBYcgFb+SZ594XH56/a0ioXFy9tnn6RgjbVB9AlRrEK7GmTOPXP3f18i69QU56LD5cvCBk4QfMmmJwcSru2/UWzQVlnws3n6g3QeC7iplxc9gt8iTDz4kiy7+tryybKlE21okm1bCNyic9+DBOWSjHLQemF03/PKXkszX5fxvflcmdnhlxar1HOIR/f57OQHeKeDGkvzp93dCv2qTee/9gCh41UFmpCdPIIyjVX2aDUs+Fs0BR31L0GRAAr1r1soHFy6Up559Vr/eRVqItHqkCOuIk/R5kg5pIxKU8qrlcv/ie3EhKtNn7ca3L2TnqT16jDlbz4vEYFvVC3L5OefJ6rWDIJoOmTZjV+lswyUoR9liUROQ1XuaD0s+Fm8JzIpjgiuNDYZWdoBhauWyrH91mcw7/Ch5+tWXpWPiBInDn9ZTArfUwCMknzbuDw5NRnxKli1dIq8sWa+35Zg6bYbmMMZOGgtzUMdTkT/+7Bq5774HcK9X/P6QzJt3sCY0ElWAH3Sz2C5gycfiLUHjthWNm8tx1XM2TU3GK8lEWk48/kS5+sqrpSXOzeRAEWASzrqHcAs35eXE1ovPvyC/vPFG3OwV5fXqgehqHuZVvSKcqSex6MFpGGm333yj/O6Pt8sRR79P73l43LyjZGK3npnX0l7M56RSyePU6j7NhiUfi7cMfL/LaDp8r8q87xVrbZMXn3lO9j/wPXLVj6+RIxcsEG+dn8x27KxEpiQ13Mbh6OWrV8lh846W/fc/UFSuBBIh1ZCcqvLFz54pG5KO5sPlPR2tcfnVTTfLdb//k/z0hlukJdwm++w6XZK9FTn/m9+XHOLsbm2XKAiMM24WzYVd4WzxloH76ZjP6mYyGf3GOcVt6SuvytGHHSFeaEH9iX5tCvFN9zKu1UEMgXibVLLUewBPTU48+UT54y3QfMo5qDc1WXjcifKHux+FntMpEuzRYzyilst3Fn1Jvvyfn5ZCpiJ77HKY9CVycu1PfilL1/fKZy/4nORhm4Wzg9Ie9os3Arqyqw2bClv6Fm8JOM5jzC2ecw8d/r7rrrvkiCOPkv5kCuSQAIF4pFitSWckqsd3JOKXSj4loWBQurpgL0HROeFDH5RiDszBRT+eoPzmtttk6sQOkBn6zUpJZsw9QCqwv84+5+viDcWkTNMt3CL80M4FXz9fDjn0QCng9nhQpLO9E2GcbVgtmgur+Vi8JeA+OmbfHJ5zH52Ojg495pPL5CXKL51Q8shPPObzUldVKce5VDkAZaYCb68okBERAoEFfAhYL0s5n5ZgC19vj0myGtBvupeydSmkVsjkSXyxC8+t4OjxSzpblkh7UHqzGemOxaWwvl/aubEYB4ks/zQVlnws3jLwK7Qc5+nuhgbjQptifu65DMLI87UKWFPZnARJOvySKYhKwRyqeAOyIZ2Sca1tmiMKpaLEQiHxK678gWrjKSEyP+KJSxVEUoYjn4RlUMow5YLxaZJNVcXTGdVfQA1JSaoFmH7BLikmixLu5POYIotmwZpdFm8JuJ1pa2vrRsRj9vghGdBxmwwuugnGopBEj97kXTw+vnEh+XJBOkE81HuKuYJEQmEpVMtSozbEmSvllSK0JQ7bFHkb44crF6sSbIdmA49IrAXPA1UhvlqtiDiCkk9lJNxO7cqi2bCaj0VTQKEjyQzB/NAXyEnOfJTpHU1QZ4qczp07d7/x7k6CQfvh3BcYTZG2vNqfoX0Ir2PU/oAb3qJ5sORjYWHRFFizy8LCoimw5GNhYdEUWPKxsLBoCiz5WFhYNAWWfCwsLJoCSz4WFhZNgSUfCwuLpsCSj4WFRVNgycfCwqIpsORjYWHRFFjysbCwaAos+VhYWDQFlnwsLCyaAks+FhYWTYElHwsLi6bAko+FhUVTYMnHwsKiKbDkY2Fh0RRY8rGwsGgKLPlYWFg0BZZ8LCwsmgJLPhYWFk2BJR8LC4umwJKPhYVFU2DJx8LCoimw5GNhYdEUWPKxsLBoCiz5WFhYNAWWfCwsLJoAkf8PLk9j/UunTzoAAAAASUVORK5CYII=;" vertex="1" parent="1">
                    <mxGeometry x="251.5" y="269.45" width="137" height="61.1" as="geometry"/>
                </mxCell>
            </root>
        </mxGraphModel>
    </diagram>
</mxfile>